<svg width="960" height="44" fill="none" xmlns="http://www.w3.org/2000/svg"><g clip-path="url(#a)"><g filter="url(#b)"><path d="M0 38C88.667 38 106.667 5 192 5s101 33 192 33S491 5 576 5s100.333 33 192 33S865.333 5 960 5" stroke="#0079DD" stroke-width="3"/></g><g opacity=".5" filter="url(#c)"><path d="M960 18C855.424 18 874.039 5 768 5s-85.961 13-192 13S490.039 5 384 5s-85.961 13-192 13S115.643 5 0 5" stroke="#0079DD" stroke-width="2.8"/></g><g opacity=".3" filter="url(#d)"><path d="M960 13c-104.576 0-85.961 9-192 9s-85.961-9-192-9-85.961 9-192 9-85.961-9-192-9-76.357 9-192 9" stroke="#0079DD" stroke-width="2.2"/></g><g opacity=".15" filter="url(#e)"><path d="M960 20c-104.576 0-85.961-5-192-5s-85.961 5-192 5-85.961-5-192-5-85.961 5-192 5-76.357-5-192-5" stroke="#0079DD" stroke-width="1.5"/></g></g><defs><filter id="b" x="-2" y="1.5" width="964" height="40" filterUnits="userSpaceOnUse" color-interpolation-filters="sRGB"><feFlood flood-opacity="0" result="BackgroundImageFix"/><feBlend in="SourceGraphic" in2="BackgroundImageFix" result="shape"/><feGaussianBlur stdDeviation="1" result="effect1_foregroundBlur_4541_4271"/></filter><filter id="c" x="-3" y=".6" width="966" height="21.8" filterUnits="userSpaceOnUse" color-interpolation-filters="sRGB"><feFlood flood-opacity="0" result="BackgroundImageFix"/><feBlend in="SourceGraphic" in2="BackgroundImageFix" result="shape"/><feGaussianBlur stdDeviation="1.5" result="effect1_foregroundBlur_4541_4271"/></filter><filter id="d" x="-6" y="5.9" width="972" height="23.2" filterUnits="userSpaceOnUse" color-interpolation-filters="sRGB"><feFlood flood-opacity="0" result="BackgroundImageFix"/><feBlend in="SourceGraphic" in2="BackgroundImageFix" result="shape"/><feGaussianBlur stdDeviation="3" result="effect1_foregroundBlur_4541_4271"/></filter><filter id="e" x="-2" y="12.25" width="964" height="10.5" filterUnits="userSpaceOnUse" color-interpolation-filters="sRGB"><feFlood flood-opacity="0" result="BackgroundImageFix"/><feBlend in="SourceGraphic" in2="BackgroundImageFix" result="shape"/><feGaussianBlur stdDeviation="1" result="effect1_foregroundBlur_4541_4271"/></filter><clipPath id="a"><path fill="#fff" d="M0 0H960V44H0z"/></clipPath></defs></svg>